<svg version="1.2" xmlns="http://www.w3.org/2000/svg" viewBox="0 0 224 130" width="224" height="130">
	<title>logoGrb3-svg</title>
	<style>
		tspan { white-space:pre } 
		.s0 { fill: #2554ab } 
		.s1 { fill: #98dcf0 } 
		.t2 { font-size: 13px;fill: #0000ff;font-weight: 700;font-family: "Roboto-Bold", "Roboto" } 
		.s3 { fill: none } 
	</style>
	<g id="Layer">
		<g id="Layer">
			<path id="Layer" class="s0" d="m91.1 75.3c0 3.3 0.1 6.6-0.1 10 0 1.2 0.8 2.9-1 3.4-1.5 0.4-3.4 0.8-4.3-1.3-1.2-2.8-2.6-1.8-4.6-0.8-12.9 6.7-27.6 3.7-36.4-7.4-8.1-10.1-7.6-25.8 1.2-36.4 10.8-13.1 34.8-12.3 43 1.5 0.8 1.2 3.7 3 0.2 4.7-2.3 1.2-4.1 2.5-6-1.5-4.6-9.5-16.9-10.3-23.7-2-6.7 8.3-7.1 23.6-0.7 32.3 2 2.6 4.4 4.4 7.6 5.3 7.4 1.9 9.9 0 9.9-7.5q0-1.5 0-3c0-11.6 1-12.3 12.6-10.7 2.2 0.3 2.3 1.3 2.3 2.9 0 3.5 0 7 0 10.5z"/>
			<path id="Layer" class="s0" d="m21.1 60.1c0.8 27.8 15 47 38.9 59.8 0.7 0.4 1.5 0.7 2.2 1.1 0.1 0.1 0.1 0.3 0.2 0.9-9.7-0.1-18.7-2.3-26.8-7.2-34.1-20.5-37.1-66.3-11.3-92.3 1.1-1.1 2.5-1.6 3.7-2.3 1.1 1.3 0.9 2.8 0.3 4.2-4.8 11.4-6.2 23.6-7.2 35.8z"/>
			<path id="Layer" class="s1" d="m21.1 60.1c-0.9-12.1 0.8-23.7 5.4-34.9 0.7-1.6 1.9-3.1 1.5-5.1 21-19.1 56.6-20.2 74 7.5 1.4 2.3 2.4 4.8 3 7.4q-0.6-0.1-1.2-0.2c-15.4-19.7-38.8-24.6-60.2-11.9-12.7 7.5-19.9 19.1-21.7 33.9-0.1 1.1 0.2 2.4-0.8 3.3z"/>
			<path id="Layer" fill-rule="evenodd" class="s0" d="m206.9 77.5c-1 5.2-7.9 11.1-14.4 11.4-11 0.3-22 0-33 0.1-2.4 0.1-2.6-1.1-2.6-3 0.1-16 0.1-32 0-47.9 0-2.5 0.8-3.2 3.1-3.1 9.7 0.3 19.3-0.4 29 0.4 4 0.4 7.9 1.3 11.2 3.8 6 4.5 5.9 12.5-0.1 16.9-1.6 1.2-3.4 2.1-5.7 3.6 1.4 0.6 2.3 1 3.2 1.5 7.5 3.7 10.6 9.2 9.3 16.3zm-34.6-29.5c-0.2 0.3-0.1 0.7-0.1 1 0 9.6 1.5 10.8 10.1 8.4 5.7-1.6 7.7-4.8 6.7-10.8-0.8-4.9-5.7-7.3-13.8-6.4-5.7 0.7-1.9 5.3-2.9 7.8zm17.6 18.6c-4.2-5.5-10.5-3.9-15.7-3.1-4.3 0.6-1 5.6-1.9 8.5-0.2 0.4-0.1 1-0.1 1.5q0 1 0 2c0 8.4 0 8.3 8.4 8.4 3.9 0 7.2-1 9.5-4.2 2.7-3.8 2.7-9.4-0.2-13.1z"/>
			<path id="Layer" fill-rule="evenodd" class="s0" d="m149 88.8c-6.1 0-11.2 0-16.3 0.1-1.9 0-2.8-1.4-3.9-2.7-3.5-4.3-5.8-9.3-7.2-14.6-0.4-1.7-0.9-3.2-3.2-2.9-2.3 0.4-1.8 2.1-1.8 3.5 0 4.5-0.1 8.9 0 13.4 0.1 2.3-0.6 3.2-3.1 3.3-11.7 0.8-11.7 0.9-11.7-11 0-13-0.1-25.9 0-38.9 0-1.6-0.9-3.9 2-4.2q0.7-0.4 1.2 0.2 12 0 24 0c9.7 0 16.6 4.6 17.9 11.8 1.6 8.7-2.8 16.9-11.9 19.9-5.1 1.8-3.4 3.6-1.4 6.3 4.2 5.7 9.4 10.5 15.4 15.8zm-18.2-31.2c1.9-4.8 2.5-9.8-0.7-14.2-3-4.1-7.8-4-11.9-3-3.3 0.9-1.1 4.6-1.6 7-0.2 1.5 0 3 0 4.5 0 2.8 0.2 5.7-0.1 8.5-0.2 3 1.2 3.7 3.9 3.5 4.6-0.3 8.5-1.6 10.4-6.3z"/>
		</g>
	</g>
	<g id="Layer">
		<text id="Gestion des Ressources " style="transform: matrix(1,0,0,1,76.463,107.829)" >
			<tspan x="0" y="0" class="t2">Gestion des Ressources 
</tspan>
		</text>
		<text id="Humaines Bénin" style="transform: matrix(1,0,0,1,76.463,122.229)" >
			<tspan x="0" y="0" class="t2">Humaines Bénin
</tspan>
		</text>
	</g>
	<path id="Layer" class="s1" d="m70.4 124.7h-1.8v-25h1.8z"/>
	<path id="Layer" class="s3" d="m94.2 102.7h78.5v14.3h-78.5z"/>
</svg>